# Apple ModelIO OBJ File: CornellBox
mtllib CornellBox.mtl
g 
v -1.01 0 0.99
v 1 0 0.99
v 1 0 -1.04
v -0.99 0 -1.04
v -1.02 1.99 0.99
v -1.02 1.99 -1.04
v 1 1.99 -1.04
v 1 1.99 0.99
v 0.53 0.6 0.75
v 0.7 0.6 0.17
v 0.13 0.6 0
v -0.05 0.6 0.57
v -0.05 0 0.57
v 0.13 0 0
v 0.53 0 0.75
v 0.7 0 0.17
v -0.53 1.2 0.09
v 0.04 1.2 -0.09
v -0.14 1.2 -0.67
v -0.71 1.2 -0.49
v -0.53 0 0.09
v -0.71 0 -0.49
v -0.14 0 -0.67
v 0.04 0 -0.09
v -0.24 1.98 0.16
v -0.24 1.98 -0.22
v 0.23 1.98 -0.22
v 0.23 1.98 0.16
vn 0 1 0
vn 0 -1 -0
vn 0 -0 1
vn -1 0 0
vn 0.9999 0.01 0.0049
vn -0.9536 0 -0.3011
vn -0.2964 -0 0.9551
vn 0.2858 0 -0.9583
vn 0.9596 -0 0.2813
vn -0.9551 0 0.2964
vn -0.3011 0 -0.9536
vn 0.9551 0 -0.2964
vn 0.3011 -0 0.9536
usemtl Material.001
f 1//1 2//1 3//1 4//1 
f 5//2 6//2 7//2 8//2 
f 4//3 3//3 7//3 6//3 
f 3//4 2//4 8//4 7//4 
f 1//5 4//5 6//5 5//5 
f 9//1 10//1 11//1 12//1 
f 13//6 12//6 11//6 14//6 
f 15//7 9//7 12//7 13//7 
f 14//8 11//8 10//8 16//8 
f 16//9 10//9 9//9 15//9 
f 17//1 18//1 19//1 20//1 
f 21//10 17//10 20//10 22//10 
f 22//11 20//11 19//11 23//11 
f 23//12 19//12 18//12 24//12 
f 24//13 18//13 17//13 21//13 
f 25//2 26//2 27//2 28//2 
s off
